# xmcd CD database file
#
# Track frame offsets:
#	150
#	20402
#	35210
#	51677
#	63692
#	76040
#	101295
#	114072
#	134242
#	144742
#
# Disc length: 2112 seconds
#
# Revision: 0
# Processed by: cddbd v1.5.1PL2 Copyright (c) Steve Scherf et al.
# Submitted via: CDex 1.51
#
DISCID=90083e0a
DTITLE=小坂恭子 - ガラス細工
DYEAR=1974
DGENRE=J-Pop
TTITLE0=恋のささやき
TTITLE1=想い出
TTITLE2=風がふいて来たから
TTITLE3=あなただけ
TTITLE4=とうちゃん
TTITLE5=ガラス細工
TTITLE6=二人の散歩道
TTITLE7=いつかきっと
TTITLE8=片想いの女の子
TTITLE9=私の好きな組合せ
EXTD=YEAR: 1974
EXTT0=
EXTT1=
EXTT2=
EXTT3=
EXTT4=
EXTT5=
EXTT6=
EXTT7=
EXTT8=
EXTT9=
PLAYORDER=
